# xmcd
#
# Track frame offsets:
#	150
#	16377
#	38980
#	63215
#
# Disc length: 1141 seconds
#
# Revision: 3
# Processed by: cddbd v1.5.2PL0 Copyright (c) Steve Scherf et al.
# Submitted via: EZCDAudioConverter 2.1.7.1
#
DISCID=2a047304
DTITLE=David Bowie - The Hearts Filthy Lesson
DYEAR=1995
DGENRE=
TTITLE0=The Hearts Filthy Lesson [Edit]
TTITLE1=The Hearts Filthy Lesson [Simenon Mix]
TTITLE2=The Hearts Filthy Lesson [Alternate Mix]
TTITLE3=The Hearts Filthy Lesson [LP Version]
EXTD=
EXTT0=
EXTT1=
EXTT2=
EXTT3=
PLAYORDER=
